PathFileType	4	(X/Y/Z)	pose_F01_0-87.trc
DataRate	CameraRate	NumFrames	NumMarkers	Units	OrigDataRate	OrigDataStartFrame	OrigNumFrames
30	30	9	21	m	30	32	87
Frame#	Time	CHip			RHip			RKnee			RAnkle			RBigToe			RSmallToe			RHeel			LHip			LKnee			LAnkle			LBigToe			LSmallToe			LHeel			Neck			Nose			RShoulder			RElbow			RWrist			LShoulder			LElbow			LWrist			
		X1	Y1	Z1	X2	Y2	Z2	X3	Y3	Z3	X4	Y4	Z4	X5	Y5	Z5	X6	Y6	Z6	X7	Y7	Z7	X8	Y8	Z8	X9	Y9	Z9	X10	Y10	Z10	X11	Y11	Z11	X12	Y12	Z12	X13	Y13	Z13	X14	Y14	Z14	X15	Y15	Z15	X16	Y16	Z16	X17	Y17	Z17	X18	Y18	Z18	X19	Y19	Z19	X20	Y20	Z20	X21	Y21	Z21	
32	1.0666666666666667	-0.2172973008440674	1.8758709679505292	-0.5507142952524567	-0.22410635711034962	1.8739783437970225	-0.48217806941096286	-0.2378750363637321	1.720995997664557	-0.43317819443668554	-0.2423984512205951	1.56309071630838	-0.39143777891972475	-0.21648989202574892	1.5165342744612114	-0.40183076668673956	-0.2277407675789559	1.5219156740904989	-0.3646482766712943	-0.2546855352873586	1.552045520481757	-0.3907444475998759	-0.20285865966683572	1.8780475733405304	-0.6257292573324283	-0.21382949044662902	1.7202625384025765	-0.621991522596623	-0.22703330266871735	1.568975709018027	-0.620826348300818	-0.19188932689552682	1.5391671823904942	-0.6974055527959608	-0.1970105395417475	1.5532476799551986	-0.7100760467235117	-0.23028181717662932	1.5650324501275994	-0.5959912029741443	-0.21743174288081782	2.0556519372806483	-0.5777211675606189	-0.19638063879722076	2.1247346082348226	-0.590449303201995	-0.22739396123959407	2.0585867256653057	-0.4793048711470867	-0.2400856268078764	1.9685236896144613	-0.4291491714004086	-0.2258003377065899	1.8816031981150323	-0.41075023518048537	-0.2011964800391629	2.0537182980726785	-0.6722339920093832	-1.3699087072389236	1.8765384826344607	0.5326046833214174	-0.4132432219583093	1.85994601436321	-0.47626002016064334
33	1.1	-0.21177511080481798	1.8765516926598915	-0.5521317224932245	-0.2207557556827621	1.8749457518163408	-0.48119929667099665	-0.2342717094366845	1.7191969094523691	-0.43256359442393544	-0.24288334667574335	1.5646363717881444	-0.38942303911180237	-0.21654764469886134	1.5163283967566092	-0.4013457154628385	-0.2273659158606148	1.521506509014173	-0.36378975476998954	-0.25441524538669036	1.554648432577174	-0.3885517979236798	-0.19942697299473205	1.879039254813197	-0.6249572200531031	-0.21081688179671976	1.7241114335865353	-0.6215213836339848	-0.22703330266871735	1.568975709018027	-0.620826348300818	-0.19218675101094265	1.5400653671235036	-0.6975167023360653	-0.19716338256434496	1.5537457364254945	-0.7101640690429647	-0.23028181717662932	1.5650324501275994	-0.5959912029741443	-0.21640706794697376	2.055850039562789	-0.5830096669549456	-0.19447649720352073	2.123302492775653	-0.5920727227584579	-0.22831381188999492	2.0601808144408227	-0.4831560074367116	-0.2392515828820236	1.9701735275936212	-0.43504062659663617	-0.22340846439186132	1.88237899134764	-0.4129315901234668	-0.20270319161563294	2.053496991015094	-0.6777863923092883	-1.3699087072389236	1.8765384826344607	0.5326046833214174	-0.19732061454317418	1.871729520082686	-0.6971186630858908
34	1.1333333333333333	-0.2064538566209398	1.8773948715607465	-0.5620596289693617	-0.22166126351287593	1.8761462491674	-0.4848079840841045	-0.23215162315285384	1.7186539311589735	-0.4346743257206106	-0.2433682421308916	1.5661820272679086	-0.38740829930388	-0.21660539737197376	1.5161225190520073	-0.4008606642389374	-0.2269910641422737	1.5210973439378472	-0.3629312328686848	-0.2541449554860221	1.5572513446725913	-0.38635914824748363	-0.1980833640561055	1.8796002525289113	-0.6304315365325377	-0.20932461516890563	1.7225909137905253	-0.6270226431665984	-0.22457991311228703	1.5733594741648504	-0.6238792412049656	-0.19178587169103029	1.5388308764898904	-0.6974311204850311	-0.19490990159439228	1.5539358633822382	-0.7122746589579376	-0.23028181717662932	1.5650324501275994	-0.5959912029741443	-0.21802472999381428	2.0571558021474337	-0.5891841439179547	-0.19633210459091258	2.1222236086522903	-0.598392078803149	-0.229223490567029	2.063188680774043	-0.49512679472300175	-0.23243326174338638	1.9716719959149478	-0.44706824648749727	-0.22117689529798443	1.8897503394559145	-0.41634176232006737	-0.20222860481054597	2.054764647760235	-0.6860684976205277	-1.356917402532229	1.8737156266647812	0.5124994017457888	-0.19543352551048065	1.8722066392054075	-0.7064316478886817
35	1.1666666666666667	-0.20527290888208638	1.8788302089646571	-0.5678156515139964	-0.2203950832722642	1.8782470825827966	-0.49068763247467356	-0.22843066842751109	1.7229776055472896	-0.4395253926712323	-0.24385313758603983	1.5677276827476727	-0.3853935594959576	-0.21666315004508616	1.5159166413474052	-0.4003756130150363	-0.22661621242393262	1.5206881788615212	-0.36207271096738003	-0.2538746655853538	1.5598542567680085	-0.38416649857128754	-0.19879171382385027	1.8808623526975308	-0.6339655285978438	-0.20707826556688524	1.7243954968984025	-0.6296897159680804	-0.22184299717992306	1.575676049231809	-0.622710609918617	-0.19153855626325003	1.541910040858775	-0.6939076023775845	-0.19424191845290553	1.5549416359356087	-0.7091345373879884	-0.23028181717662932	1.5650324501275994	-0.5959912029741443	-0.2178911294587343	2.057483883425044	-0.5976534071481265	-0.19810338842262065	2.1224651669914016	-0.6046123320423902	-0.22908694518948491	2.064689171015736	-0.5036534198758505	-0.2314386597523511	1.9718534673660977	-0.4526123251632359	-0.222196696885996	1.891502394996845	-0.41989865224530565	-0.20489734134907825	2.053688943511528	-0.6954117035872963	-1.3439260978255343	1.8708927706951015	0.4923941201701601	-0.1935464364777871	1.872683758328129	-0.7157446326914728
36	1.2	-0.20578035601212152	1.8817469808092258	-0.571443485648485	-0.21627391553084177	1.8796025883847929	-0.4953624821264414	-0.22544372856767497	1.724087562830043	-0.44733899453140713	-0.24433803304118806	1.569273338227437	-0.3833788196880352	-0.21672090271819858	1.5157107636428033	-0.39989056179113525	-0.22624136070559153	1.5202790137851954	-0.3612141890660753	-0.2536043756846856	1.5624571688634257	-0.3819738488950914	-0.19814520689931742	1.8806359917504685	-0.6424927816523797	-0.2073880859136271	1.7235733895951562	-0.6334509219163633	-0.22214189503508688	1.5780461008379307	-0.6268856396694266	-0.1914182390012786	1.541135492272481	-0.6938817871046282	-0.1941663021374891	1.554531769002899	-0.7091901639948288	-0.2311216609404747	1.5662282775742475	-0.5994959210473769	-0.21345010626683086	2.05782285484882	-0.6105354172315056	-0.19788902106166953	2.124011319210306	-0.6125768281346374	-0.22496187606184256	2.0660317007151754	-0.516307547685208	-0.23058652821615935	1.9748469857897284	-0.45892917381724113	-0.22226867190842817	1.88881581470114	-0.4197617376930551	-0.1950469220746622	2.052719245713291	-0.7097595606732945	-1.339355121265134	1.8708493530402943	0.48781454223706755	-0.19165934744509358	1.8731608774508506	-0.7250576174942638
37	1.2333333333333334	-0.20459276563664894	1.884126495355656	-0.5772969845878158	-0.2130043896632745	1.883779465712212	-0.5036870802357648	-0.2232726342715563	1.727723735554443	-0.45029078076849555	-0.2448229284963363	1.5708189937072015	-0.38136407988011284	-0.21541713240990334	1.51532851191617	-0.3991260121440611	-0.22587740100692544	1.5211159243701788	-0.3595250987606969	-0.25333408578401734	1.565060080958843	-0.37978119921889525	-0.1903104817521356	1.8832606253873212	-0.6551412856805412	-0.2049140950162424	1.7205669449323873	-0.6358183462558216	-0.22244079289025068	1.5804161524440523	-0.631060669420236	-0.1941265290152234	1.5417074167562048	-0.6953641141940681	-0.19529256993060906	1.5554353871511304	-0.712340317200347	-0.2319615047043201	1.567424105020896	-0.6030006391206094	-0.20992027608190195	2.0597714923022337	-0.626785372467962	-0.19948664905419464	2.124346083479908	-0.6186799068054065	-0.22296047114949197	2.0687253216922667	-0.5274885278408876	-0.23224347362603384	1.9824113799407173	-0.4665033308639947	-0.22312544025808753	1.8966963830254078	-0.4244504718401281	-0.1923260251519134	2.053370862482038	-0.7203634744707089	-1.3079015597084163	1.874821467762745	0.4335933738296467	-0.18977225841240006	1.873637996573572	-0.7343706022970548
38	1.2666666666666666	-0.20591588162622337	1.8828268699081923	-0.5805596256860717	-0.2153975469232789	1.8846030758205083	-0.5104768045003304	-0.22580765682859494	1.72897317475957	-0.4567154243768527	-0.24530782395148454	1.5723646491869656	-0.37934934007219046	-0.21411336210160814	1.5149462601895365	-0.398361462496987	-0.22551344130825934	1.5219528349551625	-0.3578360084553185	-0.25306379588334904	1.5676629930542603	-0.37758854954269916	-0.1916082195991378	1.8820005823499264	-0.6583151286524664	-0.2074309318734287	1.7265029403199965	-0.6422878182799604	-0.2227396907454145	1.5827862040501741	-0.6352356991710455	-0.19021789638411982	1.5431707316626293	-0.6909443503635055	-0.19310083082753654	1.555969114367816	-0.7141446743375204	-0.23280134846816547	1.568619932467544	-0.606505357193842	-0.20967922267502662	2.0614693873365435	-0.6358797073841083	-0.20101415704992873	2.1275468980768317	-0.6342242661302395	-0.2266801018233477	2.069288425246213	-0.5399801140241554	-0.23438207532256705	1.9830001185245214	-0.4734311007804113	-0.22271013934376865	1.8964894406979997	-0.4386959248152776	-0.19353076737118338	2.0529153214608145	-0.734983517616652	-0.1822581319693777	1.9569229038653555	-0.7452566665077369	-0.1878851693797065	1.8741151156962936	-0.7436835870998458
39	1.3	-0.20639393024204014	1.885217896277876	-0.5840936295100772	-0.21422998901488627	1.8862223477325537	-0.5161960802367318	-0.2242482411872397	1.730453367407285	-0.45403992211482186	-0.24579271940663278	1.5739103046667298	-0.37733460026426807	-0.21511356828411768	1.5155313753704753	-0.39285457087146464	-0.22514948160959322	1.522789745540146	-0.3561469181499401	-0.2527935059826808	1.5702659051496775	-0.375395899866503	-0.18705171828151784	1.885034432781507	-0.6631357021099522	-0.2019114172712348	1.7237556877813967	-0.6561593612594809	-0.22185631935741226	1.5843406020751518	-0.6407590860553497	-0.1909231968595853	1.5420957830392323	-0.6941037948191285	-0.19407800964206304	1.5561402145407996	-0.7173771250252733	-0.2326967263521836	1.571434534050044	-0.6157230339765118	-0.21135529054779797	2.0617679879558857	-0.6419858209731576	-0.19859729688069913	2.129031251062109	-0.6444824176491055	-0.22572782040691822	2.0708184977722954	-0.5457922212194322	-0.23441614636272215	1.9843696229088468	-0.48183182270218305	-0.22376102434478878	1.9007143752655349	-0.4428970232950367	-0.19422519806300045	2.0538840177866353	-0.7379946292871058	-0.1852073551712854	1.956421105576082	-0.7461991850493223	-0.18599808034701298	1.8745922348190152	-0.7529965719026368
40	1.3333333333333333	-0.20735480487894956	1.8854234645682335	-0.5873840306353968	-0.21517146072474036	1.886153654933204	-0.5194955058498288	-0.22459028500465886	1.7304196705841404	-0.45371691852528234	-0.246277614861781	1.5754559601464941	-0.3753198604563457	-0.2147987466464283	1.5180907612145131	-0.3979679281973616	-0.22478552191092713	1.5236266561251295	-0.3544578278445617	-0.25252321608201256	1.5728688172450946	-0.37320325019030687	-0.18989001187881738	1.8861439394856936	-0.6643610998055808	-0.20188205807188217	1.726732193372415	-0.6647479103573029	-0.22385580656595408	1.5851409157931784	-0.6473772200346978	-0.1923390769272288	1.5425943163450038	-0.6882140147711417	-0.1951823114143849	1.5553518093854553	-0.712125337207501	-0.23423701544859624	1.5723317201630345	-0.6229501347512255	-0.21313751704874365	2.063305411335127	-0.6486458927351968	-0.19523253699458612	2.1305523909282575	-0.6526253160755975	-0.2265859153634108	2.070999620336682	-0.5491341158761487	-0.23519095054296868	1.9881068106037854	-0.4855990007620131	-0.22599268418082571	1.90613061852478	-0.44458242031404255	-0.19514492523389013	2.0557063367065265	-0.7413180897001104	-0.18676619535894	1.962860477820175	-0.7524927602951949	-0.18657247424300463	1.882998379819776	-0.7602463415563321
